<svg width="320" height="320" viewBox="0 0 320 320" fill="none" xmlns="http://www.w3.org/2000/svg">
<rect x="140" y="300" width="10" height="10" fill="black"/>
<rect x="150" y="300" width="10" height="10" fill="#FAFF00"/>
<rect x="160" y="300" width="10" height="10" fill="#FAFF00"/>
<rect x="170" y="300" width="10" height="10" fill="black"/>
<rect x="150" y="310" width="10" height="10" fill="black"/>
<rect x="160" y="310" width="10" height="10" fill="black"/>
<rect x="120" y="280" width="10" height="10" fill="#FF5252"/>
<rect x="130" y="280" width="10" height="10" fill="#FF5252"/>
<rect x="140" y="280" width="10" height="10" fill="#FF5252"/>
<rect x="150" y="280" width="10" height="10" fill="black"/>
<rect x="160" y="280" width="10" height="10" fill="black"/>
<rect x="170" y="280" width="10" height="10" fill="#FF5252"/>
<rect x="180" y="280" width="10" height="10" fill="#FF5252"/>
<rect x="190" y="280" width="10" height="10" fill="#FF5252"/>
<rect x="120" y="290" width="10" height="10" fill="#FF5252"/>
<rect x="130" y="290" width="10" height="10" fill="#FF5252"/>
<rect x="140" y="290" width="10" height="10" fill="black"/>
<rect x="150" y="290" width="10" height="10" fill="#FAFF00"/>
<rect x="160" y="290" width="10" height="10" fill="#FAFF00"/>
<rect x="170" y="290" width="10" height="10" fill="black"/>
<rect x="180" y="290" width="10" height="10" fill="#FF5252"/>
<rect x="190" y="290" width="10" height="10" fill="#FF5252"/>
</svg>
