<svg width="320" height="320" viewBox="0 0 320 320" fill="none" xmlns="http://www.w3.org/2000/svg">
<rect x="110" y="150" width="10" height="10" fill="#98C7E5"/>
<rect x="120" y="150" width="10" height="10" fill="#98C7E5"/>
<rect x="130" y="150" width="10" height="10" fill="#98C7E5"/>
<rect x="180" y="150" width="10" height="10" fill="#98C7E5"/>
<rect x="190" y="150" width="10" height="10" fill="#98C7E5"/>
<rect x="200" y="150" width="10" height="10" fill="#98C7E5"/>
<rect x="100" y="160" width="10" height="10" fill="#98C7E5"/>
<rect x="110" y="160" width="10" height="10" fill="white"/>
<rect x="120" y="160" width="10" height="10" fill="#774765"/>
<rect x="130" y="160" width="10" height="10" fill="#774765"/>
<rect x="140" y="160" width="10" height="10" fill="#98C7E5"/>
<rect x="170" y="160" width="10" height="10" fill="#98C7E5"/>
<rect x="180" y="160" width="10" height="10" fill="white"/>
<rect x="190" y="160" width="10" height="10" fill="#774765"/>
<rect x="200" y="160" width="10" height="10" fill="#774765"/>
<rect x="210" y="160" width="10" height="10" fill="#98C7E5"/>
<rect x="100" y="170" width="10" height="10" fill="#98C7E5"/>
<rect x="110" y="170" width="10" height="10" fill="#774765"/>
<rect x="120" y="170" width="10" height="10" fill="#774765"/>
<rect x="130" y="170" width="10" height="10" fill="#774765"/>
<rect x="140" y="170" width="10" height="10" fill="#98C7E5"/>
<rect x="170" y="170" width="10" height="10" fill="#98C7E5"/>
<rect x="180" y="170" width="10" height="10" fill="#774765"/>
<rect x="190" y="170" width="10" height="10" fill="#774765"/>
<rect x="200" y="170" width="10" height="10" fill="#774765"/>
<rect x="210" y="170" width="10" height="10" fill="#98C7E5"/>
<rect x="100" y="180" width="10" height="10" fill="#98C7E5"/>
<rect x="110" y="180" width="10" height="10" fill="#774765"/>
<rect x="120" y="180" width="10" height="10" fill="#774765"/>
<rect x="130" y="180" width="10" height="10" fill="#774765"/>
<rect x="140" y="180" width="10" height="10" fill="#98C7E5"/>
<rect x="170" y="180" width="10" height="10" fill="#98C7E5"/>
<rect x="180" y="180" width="10" height="10" fill="#774765"/>
<rect x="190" y="180" width="10" height="10" fill="#774765"/>
<rect x="200" y="180" width="10" height="10" fill="#774765"/>
<rect x="210" y="180" width="10" height="10" fill="#98C7E5"/>
<rect x="100" y="190" width="10" height="10" fill="#98C7E5"/>
<rect x="110" y="190" width="10" height="10" fill="#774765"/>
<rect x="120" y="190" width="10" height="10" fill="#774765"/>
<rect x="130" y="190" width="10" height="10" fill="#774765"/>
<rect x="140" y="190" width="10" height="10" fill="#D6EEF8"/>
<rect x="170" y="190" width="10" height="10" fill="#98C7E5"/>
<rect x="180" y="190" width="10" height="10" fill="#774765"/>
<rect x="190" y="190" width="10" height="10" fill="#774765"/>
<rect x="200" y="190" width="10" height="10" fill="#774765"/>
<rect x="210" y="190" width="10" height="10" fill="#D6EEF8"/>
<rect x="100" y="200" width="10" height="10" fill="#CBDCEE"/>
<rect x="110" y="200" width="10" height="10" fill="#774765"/>
<rect x="120" y="200" width="10" height="10" fill="#774765"/>
<rect x="130" y="200" width="10" height="10" fill="#774765"/>
<rect x="140" y="200" width="10" height="10" fill="#AFF0EA"/>
<rect x="170" y="200" width="10" height="10" fill="#D6EEF8"/>
<rect x="180" y="200" width="10" height="10" fill="#774765"/>
<rect x="190" y="200" width="10" height="10" fill="#774765"/>
<rect x="200" y="200" width="10" height="10" fill="#774765"/>
<rect x="210" y="200" width="10" height="10" fill="#AFF0EA"/>
<rect x="110" y="210" width="10" height="10" fill="#AFF0EA"/>
<rect x="120" y="210" width="10" height="10" fill="#D6EEF8"/>
<rect x="130" y="210" width="10" height="10" fill="#D6EEF8"/>
<rect x="180" y="210" width="10" height="10" fill="#AFF0EA"/>
<rect x="190" y="210" width="10" height="10" fill="#D6EEF8"/>
<rect x="200" y="210" width="10" height="10" fill="#D6EEF8"/>
</svg>
